<svg xmlns="http://www.w3.org/2000/svg" xmlns:xlink="http://www.w3.org/1999/xlink" version="1.1" id="Layer_1" x="0px" y="0px" width="100px" height="100px" viewBox="0 0 100 100" enable-background="new 0 0 100 100" xml:space="preserve">
<g>
	<path d="M28.596,55.417c-5.494,2.677-11.497,5.185-13.734,4.532c-0.582-0.168-1.535-0.657-2.353-0.959   c-1.702-0.622-3.8-0.377-6.158,1.42c-3.743,2.862-2.195,6.034-0.823,9.354c0.467-0.328,0.889-1.681,1.556-1.296   c1.633,2.928-3.404,6.881,0.497,8.956c2.649,1.41,5.964-1.402,9.421-3.938c4.817-3.529,10.315-5.052,15.181-6.212   c-0.953-1.332-1.791-2.996-2.45-4.934C29.028,60.268,28.515,57.719,28.596,55.417z"/>
	<path d="M95.759,46.991c0.201-1.12,0.225-2.209,0.229-3.336c0.013-1.561-0.196-3.115-0.59-4.622   c-0.828-3.158-2.328-6.271-4.393-8.806c-1-1.228-2.145-2.272-3.383-3.196c-1.702-1.262-3.587-2.297-5.531-3.251   c-4.2-2.06-8.84-1.741-13.339-1.082c-3.927,0.577-8.737,3.352-12.354,6.634c-4.685,4.247-7.898,10.14-11.749,14.156   c-2.616,2.724-10.572,7.27-11.771,7.756c-0.327,0.161-0.744,0.457-1.15,0.887c-0.005,0.006-0.008,0.013-0.013,0.018   c-1.353,1.503-1.344,5.502,0.019,9.51c1.187,3.489,3.055,6.054,4.889,6.8c0.041,0.005,0.074,0.009,0.097,0.01   c3.99-1.287,5.549-1.406,8.495-2.126c1.715-0.42,4.099-0.223,6.194-0.015c4.852,0.497,12.93-0.038,13.443-0.862   c0.617-0.704,0.426-0.426,0.358-1.868c-0.121-2.638,3.239-5.15,6.947-5.571c0.472-2.407,2.684-4.069,4.888-4.528   c1.631-0.34,3.125-0.045,4.217,0.757c0.346-0.531,0.822-0.997,1.433-1.366c1.061-0.64,2.511-1.002,4.088-1.018   c2.546-0.026,2.173,0.19,4.83,1.971C93.183,54.892,95.307,49.497,95.759,46.991z M64.312,30.1c-5.196,2.743-8.592,7.259-8.83,6.807   c-0.238-0.453,3.172-5.725,8.369-8.468c5.196-2.743,10.21-1.919,10.449-1.467C74.539,27.425,69.509,27.356,64.312,30.1z"/>
</g>
</svg>